<mxfile host="65bd71144e">
    <diagram id="zOVBVRye3Tny8WeWWyTU" name="Page-1">
        <mxGraphModel dx="679" dy="266" grid="1" gridSize="10" guides="1" tooltips="1" connect="1" arrows="1" fold="1" page="1" pageScale="1" pageWidth="827" pageHeight="1169" math="0" shadow="0">
            <root>
                <mxCell id="0"/>
                <mxCell id="1" parent="0"/>
                <mxCell id="10" value="Messenger B" style="text;html=1;strokeColor=none;fillColor=none;align=center;verticalAlign=middle;whiteSpace=wrap;rounded=0;fontFamily=Tahoma;fontSize=14;" parent="1" vertex="1">
                    <mxGeometry x="354" y="260" width="110" height="30" as="geometry"/>
                </mxCell>
                <mxCell id="11" value="Messenger C" style="text;html=1;strokeColor=none;fillColor=none;align=center;verticalAlign=middle;whiteSpace=wrap;rounded=0;fontFamily=Tahoma;fontSize=14;" parent="1" vertex="1">
                    <mxGeometry x="634" y="260" width="110" height="30" as="geometry"/>
                </mxCell>
                <mxCell id="12" value="&lt;font style=&quot;font-size: 12px;&quot;&gt;Client&lt;/font&gt;" style="rounded=0;whiteSpace=wrap;html=1;fontFamily=Tahoma;fontSize=14;" parent="1" vertex="1">
                    <mxGeometry x="314" y="300" width="90" height="60" as="geometry"/>
                </mxCell>
                <mxCell id="16" value="&lt;font style=&quot;font-size: 12px;&quot;&gt;Server2Client&lt;br&gt;Connection&lt;br&gt;&lt;/font&gt;" style="edgeStyle=none;html=1;fontFamily=Tahoma;fontSize=14;entryX=0.805;entryY=-0.012;entryDx=0;entryDy=0;entryPerimeter=0;" parent="1" source="13" target="14" edge="1">
                    <mxGeometry x="-0.1705" y="6" relative="1" as="geometry">
                        <mxPoint x="446" y="449" as="targetPoint"/>
                        <mxPoint as="offset"/>
                    </mxGeometry>
                </mxCell>
                <mxCell id="13" value="&lt;font style=&quot;font-size: 12px;&quot;&gt;Server&lt;/font&gt;" style="rounded=0;whiteSpace=wrap;html=1;fontFamily=Tahoma;fontSize=14;" parent="1" vertex="1">
                    <mxGeometry x="424" y="300" width="90" height="60" as="geometry"/>
                </mxCell>
                <mxCell id="14" value="&lt;font style=&quot;font-size: 12px;&quot;&gt;MessagingManager&lt;/font&gt;" style="rounded=0;whiteSpace=wrap;html=1;fontFamily=Tahoma;fontSize=14;" parent="1" vertex="1">
                    <mxGeometry x="354" y="450" width="120" height="60" as="geometry"/>
                </mxCell>
                <mxCell id="17" value="&lt;font style=&quot;font-size: 12px;&quot;&gt;Client&lt;/font&gt;" style="rounded=0;whiteSpace=wrap;html=1;fontFamily=Tahoma;fontSize=14;" parent="1" vertex="1">
                    <mxGeometry x="644" y="300" width="90" height="60" as="geometry"/>
                </mxCell>
                <mxCell id="19" value="&lt;font style=&quot;font-size: 12px;&quot;&gt;Client2Server&lt;br&gt;Connection&lt;br&gt;&lt;/font&gt;" style="endArrow=classic;html=1;fontFamily=Tahoma;fontSize=14;exitX=0.5;exitY=1;exitDx=0;exitDy=0;entryX=0.25;entryY=0;entryDx=0;entryDy=0;" parent="1" target="14" edge="1">
                    <mxGeometry x="-0.1792" y="-6" width="50" height="50" relative="1" as="geometry">
                        <mxPoint x="359" y="360" as="sourcePoint"/>
                        <mxPoint x="409" y="450" as="targetPoint"/>
                        <mxPoint as="offset"/>
                    </mxGeometry>
                </mxCell>
                <mxCell id="23" value="Verbindungsaufbau" style="endArrow=classic;html=1;fontFamily=Tahoma;fontSize=12;entryX=1;entryY=0.25;entryDx=0;entryDy=0;" parent="1" target="13" edge="1">
                    <mxGeometry width="50" height="50" relative="1" as="geometry">
                        <mxPoint x="644" y="315" as="sourcePoint"/>
                        <mxPoint x="604" y="320" as="targetPoint"/>
                    </mxGeometry>
                </mxCell>
                <mxCell id="24" value="Websocket" style="shape=flexArrow;endArrow=classic;startArrow=classic;html=1;fontFamily=Tahoma;fontSize=12;exitX=1;exitY=0.75;exitDx=0;exitDy=0;entryX=0;entryY=0.75;entryDx=0;entryDy=0;startWidth=10.29320987654321;endWidth=10.29320987654321;startSize=5.388888888888888;endSize=5.388888888888888;width=4.722222222222222;" parent="1" source="13" target="17" edge="1">
                    <mxGeometry width="100" height="100" relative="1" as="geometry">
                        <mxPoint x="524" y="460" as="sourcePoint"/>
                        <mxPoint x="624" y="360" as="targetPoint"/>
                    </mxGeometry>
                </mxCell>
                <mxCell id="26" value="Messenger A" style="text;html=1;strokeColor=none;fillColor=none;align=center;verticalAlign=middle;whiteSpace=wrap;rounded=0;fontFamily=Tahoma;fontSize=14;" parent="1" vertex="1">
                    <mxGeometry x="84" y="260" width="110" height="30" as="geometry"/>
                </mxCell>
                <mxCell id="27" value="&lt;font style=&quot;font-size: 12px;&quot;&gt;Server&lt;/font&gt;" style="rounded=0;whiteSpace=wrap;html=1;fontFamily=Tahoma;fontSize=14;" parent="1" vertex="1">
                    <mxGeometry x="94" y="300" width="90" height="60" as="geometry"/>
                </mxCell>
                <mxCell id="28" value="Verbindungsaufbau" style="endArrow=classic;html=1;fontFamily=Tahoma;fontSize=12;entryX=1;entryY=0.25;entryDx=0;entryDy=0;exitX=0;exitY=0.25;exitDx=0;exitDy=0;" parent="1" source="12" target="27" edge="1">
                    <mxGeometry width="50" height="50" relative="1" as="geometry">
                        <mxPoint x="34" y="315" as="sourcePoint"/>
                        <mxPoint x="164" y="315" as="targetPoint"/>
                        <mxPoint as="offset"/>
                    </mxGeometry>
                </mxCell>
                <mxCell id="29" value="Websocket" style="shape=flexArrow;endArrow=classic;startArrow=classic;html=1;fontFamily=Tahoma;fontSize=12;exitX=0;exitY=0.75;exitDx=0;exitDy=0;entryX=1;entryY=0.75;entryDx=0;entryDy=0;startWidth=10.29320987654321;endWidth=10.29320987654321;startSize=5.388888888888888;endSize=5.388888888888888;width=4.722222222222222;" parent="1" source="12" target="27" edge="1">
                    <mxGeometry width="100" height="100" relative="1" as="geometry">
                        <mxPoint x="34" y="345" as="sourcePoint"/>
                        <mxPoint x="144" y="360" as="targetPoint"/>
                    </mxGeometry>
                </mxCell>
                <mxCell id="30" value="Frontend" style="rounded=0;whiteSpace=wrap;html=1;fontFamily=Tahoma;fontSize=12;" parent="1" vertex="1">
                    <mxGeometry x="354" y="570" width="120" height="60" as="geometry"/>
                </mxCell>
                <mxCell id="31" value="" style="endArrow=classic;html=1;fontFamily=Tahoma;fontSize=12;exitX=0.25;exitY=1;exitDx=0;exitDy=0;entryX=0.25;entryY=0;entryDx=0;entryDy=0;" parent="1" source="14" target="30" edge="1">
                    <mxGeometry relative="1" as="geometry">
                        <mxPoint x="394" y="540" as="sourcePoint"/>
                        <mxPoint x="494" y="540" as="targetPoint"/>
                    </mxGeometry>
                </mxCell>
                <mxCell id="32" value="" style="shape=message;html=1;outlineConnect=0;fontFamily=Tahoma;fontSize=12;" parent="31" vertex="1">
                    <mxGeometry width="20" height="14" relative="1" as="geometry">
                        <mxPoint x="-10" y="-7" as="offset"/>
                    </mxGeometry>
                </mxCell>
                <mxCell id="33" value="" style="endArrow=classic;html=1;fontFamily=Tahoma;fontSize=12;exitX=0.25;exitY=1;exitDx=0;exitDy=0;entryX=0.25;entryY=0;entryDx=0;entryDy=0;" parent="1" edge="1">
                    <mxGeometry relative="1" as="geometry">
                        <mxPoint x="444" y="570" as="sourcePoint"/>
                        <mxPoint x="444" y="510" as="targetPoint"/>
                    </mxGeometry>
                </mxCell>
                <mxCell id="34" value="" style="shape=message;html=1;outlineConnect=0;fontFamily=Tahoma;fontSize=12;" parent="33" vertex="1">
                    <mxGeometry width="20" height="14" relative="1" as="geometry">
                        <mxPoint x="-10" y="-7" as="offset"/>
                    </mxGeometry>
                </mxCell>
                <mxCell id="35" value="[...]" style="text;html=1;strokeColor=none;fillColor=none;align=center;verticalAlign=middle;whiteSpace=wrap;rounded=0;" vertex="1" parent="1">
                    <mxGeometry x="109" y="360" width="60" height="30" as="geometry"/>
                </mxCell>
                <mxCell id="36" value="[...]" style="text;html=1;strokeColor=none;fillColor=none;align=center;verticalAlign=middle;whiteSpace=wrap;rounded=0;" vertex="1" parent="1">
                    <mxGeometry x="659" y="360" width="60" height="30" as="geometry"/>
                </mxCell>
            </root>
        </mxGraphModel>
    </diagram>
</mxfile>